<svg xmlns="http://www.w3.org/2000/svg" viewBox="0 0 118.57 120.28"><defs><style>.cls-1,.cls-2,.cls-3{fill:none;}.cls-1,.cls-2,.cls-3,.cls-4{stroke:#fff;}.cls-1,.cls-2,.cls-4{stroke-linejoin:round;}.cls-1{stroke-width:3px;}.cls-2,.cls-3,.cls-4{stroke-width:2px;}.cls-3{stroke-linecap:round;}.cls-4{fill:#fff;}</style></defs><g id="Layer_2" data-name="Layer 2"><g id="Ebene_1" data-name="Ebene 1"><path class="cls-1" d="M110.49,30.82c-2.06,4-4,7.76-5.87,11.48-1.08,2.1-2.13,4.22-3.29,6.27-.55,1-.47,1.41.55,2,4.78,2.67,9.49,5.47,14.26,8.14,1.22.69,1.24,1,0,1.75-5,3.1-9.92,6.32-14.92,9.42-1.07.67-1.27,1.16-.59,2.29,3.1,5.2,6.11,10.45,9.14,15.69.25.42,1,1.55,1,1.55H109c-6.06,0-12.13,0-18.2,0-1.21,0-1.58.34-1.57,1.55.06,6.07,0,12.14,0,18.21,0,1.49-.25,1.68-1.58.89-5.19-3.11-10.46-6.08-15.66-9.17-1-.6-1.45-.59-2.07.51-3.21,5.73-6.6,11.75-9.88,17.44-.15-.23-.75-1.19-1-1.68-3-5.14-5.94-10.27-8.84-15.46-.67-1.2-1.16-1.49-2.46-.7C42.6,104,37.37,107,32.21,110c-1.08.64-1.55.76-1.51-.79.08-3.41.06-6.82,0-10.23a2.06,2.06,0,0,1,1-2A43.66,43.66,0,0,0,44.3,83.37a28,28,0,0,1,5.91-7c.79-.66,4.55-2.18,5.47-3.13C62.35,66.39,69,59.46,75.63,52.56S88.69,39,95,32a3.14,3.14,0,0,1,2.66-1.19C101.78,30.86,105.94,30.82,110.49,30.82Z"/><path class="cls-1" d="M30.73,9.42l6,3.44C40.38,15,44,17.05,47.63,19.24c1.22.76,1.8.77,2.57-.62C53.06,13.41,56.06,8.29,59,3.15L60,1.5s.69,1.25,1,1.72c2.95,5.08,5.9,10.17,8.76,15.3.69,1.25,1.21,1.59,2.57.76,5.08-3.07,10.24-6,15.38-9l1.59-.91s0,1.32,0,1.81c0,3.82,0,7.63,0,11.44a2.7,2.7,0,0,1-1,2.26C74.12,37.8,60.48,51.27,46.67,64.57c-.92.88-2.32,4.33-3,5.13a22.34,22.34,0,0,1-5.22,4.77c-6.16,3.77-11.75,8.17-15.8,14.27-.46.69-1,.63-1.64.64H9.29s.57-1.09.79-1.48c3-5.23,6-10.49,9.15-15.67.7-1.16.49-1.62-.6-2.23-5.27-3-10.51-6-15.75-9L1.5,60.14c.75-.48,1.33-.87,2-1.23,5-2.9,10.08-5.82,15.17-8.66,1.11-.62,1.3-1.09.63-2.22-3.1-5.2-6.09-10.46-9.17-15.67-.76-1.28-.57-1.59.94-1.57,6,.07,11.91,0,17.86.07,1.6,0,1.9-.49,1.88-2-.08-5.83,0-11.67,0-17.51Z"/><path id="path2921" class="cls-2" d="M51.11,75.83l7.07,6.9,1.89-1.89-5.91-5.92c21.06-22.28,59.78-60.37,59.51-68.4C105.64,6.25,67.55,45,45.27,66l-5.46-5.46-1.89,1.89,6.48,6.42a24,24,0,0,1-6.19,6c-3.87,2.43-10.44,6.43-15.58,13.93-6.56,9.58-7.93,12.64-13,15.36-4.92,2.64-5.86,6.67-3.12,9.42s6.77,1.78,9.4-3.14c2.73-5.09,5.78-6.45,15.36-13,7.5-5.14,11.5-11.7,13.94-15.58A23.5,23.5,0,0,1,51.11,75.83Z"/><path id="path2921-2" data-name="path2921" class="cls-2" d="M51.11,75.83l7.07,6.9,1.89-1.89-5.91-5.92c21.06-22.28,59.78-60.37,59.51-68.4C105.64,6.25,67.55,45,45.27,66l-5.46-5.46-1.89,1.89,6.48,6.42a24,24,0,0,1-6.19,6c-3.87,2.43-10.44,6.43-15.58,13.93-6.56,9.58-7.93,12.64-13,15.36-4.92,2.64-5.86,6.67-3.12,9.42s6.77,1.78,9.4-3.14c2.73-5.09,5.78-6.45,15.36-13,7.5-5.14,11.5-11.7,13.94-15.58A23.5,23.5,0,0,1,51.11,75.83Z"/><path id="path2940" class="cls-3" d="M6.05,107.14,13,114M113.67,6.52,49.6,70.37"/><path id="path2921-3" data-name="path2921" class="cls-4" d="M58.18,82.73l1.89-1.89L39.81,60.58l-1.89,1.89Z"/></g></g></svg>